<?xml version="1.0" encoding="utf-8"?>
<!-- Generator: Adobe Illustrator 17.0.0, SVG Export Plug-In . SVG Version: 6.00 Build 0)  -->
<!DOCTYPE svg PUBLIC "-//W3C//DTD SVG 1.1//EN" "http://www.w3.org/Graphics/SVG/1.1/DTD/svg11.dtd">
<svg version="1.1"
	 id="svg2" sodipodi:version="0.32" sodipodi:docname="error_icons.svg" inkscape:version="0.43" sodipodi:docbase="C:\download\SVG graphics\Mo&apos;s" xmlns:cc="http://web.resource.org/cc/" xmlns:dc="http://purl.org/dc/elements/1.1/" xmlns:inkscape="http://www.inkscape.org/namespaces/inkscape" xmlns:rdf="http://www.w3.org/1999/02/22-rdf-syntax-ns#" xmlns:sodipodi="http://inkscape.sourceforge.net/DTD/sodipodi-0.dtd" xmlns:svg="http://www.w3.org/2000/svg"
	 xmlns="http://www.w3.org/2000/svg" xmlns:xlink="http://www.w3.org/1999/xlink" x="0px" y="0px" width="285px" height="279px"
	 viewBox="223.547 184.681 285 279" enable-background="new 223.547 184.681 285 279" xml:space="preserve">
<sodipodi:namedview  id="base" inkscape:pageshadow="2" inkscape:window-width="1225" inkscape:window-y="249" inkscape:current-layer="layer1" inkscape:document-units="px" inkscape:window-height="729" inkscape:pageopacity="0.0" inkscape:window-x="106" inkscape:cy="429.64842" inkscape:zoom="0.35" pagecolor="#ffffff" inkscape:cx="559.15683" borderopacity="1.0" bordercolor="#666666">
	</sodipodi:namedview>
<path id="rect3417" inkscape:export-ydpi="7.7063322" inkscape:export-xdpi="7.7063322" inkscape:export-filename="C:\Documents and Settings\Molumen\Desktop\path3511111.png" fill="#F00A10" d="
	M427.131,191.028H304.244c-39.964,0-72.361,32.397-72.361,72.361v120.709c0,39.964,32.397,72.361,72.361,72.361h122.888
	c39.964,0,72.361-32.397,72.361-72.361V263.389C499.492,223.425,467.095,191.028,427.131,191.028z"/>
<g id="g3479" transform="matrix(1.206017,0,0,1.206017,-273.8491,-568.2308)" inkscape:export-ydpi="7.7063322" inkscape:export-xdpi="7.7063322" inkscape:export-filename="C:\Documents and Settings\Molumen\Desktop\path3511111.png">
	<path id="path3419" fill="#CB1E0E" d="M554.127,739.603l35.778-35.778c3.748-3.748,5.622-7.894,5.622-12.437
		c-0.227-4.089-2.101-7.894-5.622-11.415c-3.18-3.18-6.928-4.998-11.244-5.452c-4.43-0.341-8.632,1.476-12.607,5.452l-35.778,35.778
		l-35.778-35.778c-3.635-3.635-7.723-5.452-12.267-5.452c-4.43,0.341-8.291,2.158-11.585,5.452
		c-2.839,2.839-4.486,6.531-4.941,11.074c-0.454,4.77,1.193,9.029,4.941,12.778l35.778,35.778l-35.778,35.778
		c-3.18,3.18-4.941,7.326-5.281,12.437c0.341,4.429,2.101,8.234,5.281,11.415c2.953,2.953,6.701,4.77,11.244,5.452
		c4.43,0.341,8.632-1.477,12.607-5.452l35.778-35.778l35.778,35.778c3.748,3.748,7.894,5.395,12.437,4.941
		c4.657-0.341,8.462-1.988,11.415-4.941c2.726-2.726,4.373-6.417,4.941-11.074c0.681-4.543-0.966-8.803-4.941-12.778
		L554.127,739.603"/>
	<path id="path3421" fill="#FFFFFF" d="M552.28,739.603l32.987-32.987c3.456-3.456,5.184-7.278,5.184-11.467
		c-0.21-3.77-1.937-7.278-5.184-10.524c-2.932-2.932-6.388-4.608-10.367-5.027c-4.084-0.314-7.959,1.361-11.624,5.027
		l-32.987,32.987l-32.987-32.987c-3.351-3.351-7.121-5.027-11.31-5.027c-4.084,0.314-7.645,1.99-10.682,5.027
		c-2.618,2.618-4.136,6.021-4.555,10.21c-0.419,4.398,1.1,8.325,4.555,11.781l32.987,32.987L475.31,772.59
		c-2.932,2.932-4.555,6.754-4.87,11.467c0.314,4.084,1.937,7.592,4.87,10.524c2.723,2.723,6.179,4.398,10.367,5.027
		c4.084,0.314,7.959-1.362,11.624-5.027l32.987-32.987l32.987,32.987c3.456,3.456,7.278,4.974,11.467,4.555
		c4.294-0.314,7.802-1.833,10.524-4.555c2.513-2.514,4.032-5.917,4.555-10.21c0.628-4.189-0.89-8.116-4.555-11.781L552.28,739.603"
		/>
</g>
<linearGradient id="path3423_1_" gradientUnits="userSpaceOnUse" x1="-141.5712" y1="465.1316" x2="-193.2677" y2="314.4426" gradientTransform="matrix(-1.206 0 0 -1.206 128.3265 709.2277)">
	<stop  offset="0" style="stop-color:#FFFFFF"/>
	<stop  offset="1" style="stop-color:#FFFFFF;stop-opacity:0"/>
</linearGradient>
<path id="path3423" sodipodi:nodetypes="ccccsssc" inkscape:export-ydpi="7.7063322" inkscape:export-xdpi="7.7063322" inkscape:export-filename="C:\Documents and Settings\Molumen\Desktop\path3511111.png" fill="url(#path3423_1_)" d="
	M428.79,202.375H302.585c-33.407,0-60.301,26.894-60.301,60.301v122.135c1.081,26.077,5.241,9.592,13.158-19.287
	c9.202-33.562,39.168-62.896,75.662-84.88c27.855-16.78,59.033-27.495,115.785-28.514
	C479.076,251.552,476.234,210.695,428.79,202.375z"/>
</svg>
